<?xml version="1.0" encoding="UTF-8"?>
<!DOCTYPE svg PUBLIC "-//W3C//DTD SVG 1.1//EN" "http://www.w3.org/Graphics/SVG/1.1/DTD/svg11.dtd">
<!-- Creator: CorelDRAW X8 -->
<svg xmlns="http://www.w3.org/2000/svg" xml:space="preserve" width="174px" height="121px" version="1.1" style="shape-rendering:geometricPrecision; text-rendering:geometricPrecision; image-rendering:optimizeQuality; fill-rule:evenodd; clip-rule:evenodd"
viewBox="0 0 171 118"
 xmlns:xlink="http://www.w3.org/1999/xlink">
 <defs>
  <style type="text/css">
   <![CDATA[
    .fil0 {fill:white}
    .fil1 {fill:#FF9000;fill-rule:nonzero}
   ]]>
  </style>
 </defs>
 <g id="Camada_x0020_1">
  <metadata id="CorelCorpID_0Corel-Layer"/>
  <g id="_1947383360096">
   <path class="fil0" d="M49 42c1,-9 7,-18 12,-23 14,-12 36,-12 49,1 5,4 12,13 12,22l-5 0 0 40c7,0 12,1 16,-3 5,-3 5,-7 5,-14 0,-7 1,-13 -2,-18 -4,-4 -4,0 -4,-6 -2,-21 -21,-41 -46,-41 -26,0 -45,20 -47,42 0,4 -1,1 -4,6 -3,4 -2,10 -2,17 0,7 0,11 5,14 5,4 9,3 16,3l0 -40 -5 0z"/>
   <path class="fil0" d="M84 75c5,0 4,0 5,-5 0,-1 1,-2 1,-4 0,0 0,-1 0,-2 0,0 1,0 1,0l0 -1c0,1 3,16 3,19l4 0 5 -17 11 0 0 -1c-2,0 -10,-1 -12,0 -2,1 -4,8 -5,10l-4 -27c-1,0 -3,0 -5,0l-3 18 -3 -6 -3 0c-1,2 -2,4 -3,6l-19 0 0 2c4,0 9,0 13,0 2,0 5,1 7,0 2,0 2,-1 3,-3l4 11z"/>
  </g>
  <path class="fil1" d="M22 87l5 0 0 31 -5 0 0 -23 1 1 -8 18 -3 0 -8 -18 0 -1 0 23 -4 0 0 -31 4 0 9 20 9 -20zm12 0l4 0 0 4 -4 0 0 -4zm0 9l4 0 0 22 -4 0 0 -22zm11 0l4 0 0 22 -4 0 0 -22zm13 9c0,-2 0,-3 -1,-4 -1,-1 -2,-1 -3,-1 -2,0 -3,0 -3,1 -1,1 -2,2 -2,3l0 -4c1,-2 1,-3 3,-3 1,-1 2,-2 3,-2 3,0 5,1 6,3 1,1 2,4 2,7l0 13 -5 0 0 -13zm24 -18l5 0 0 31 -5 0 0 -31zm-5 31c-2,0 -3,0 -5,-1 -1,0 -2,-1 -2,-3 -1,-1 -1,-3 -1,-5l0 -5c0,-1 0,-3 1,-4 0,-2 1,-3 2,-4 1,0 3,-1 4,-1 2,0 3,1 4,1 1,1 2,2 3,3l-1 5c0,-1 0,-2 0,-3 -1,0 -1,-1 -2,-1 0,0 -1,-1 -2,-1 -2,0 -3,1 -4,2 0,1 -1,2 -1,4l0 4c0,2 1,3 1,4 1,1 2,1 4,1 1,0 2,0 2,0 1,0 1,-1 2,-2 0,0 0,-1 0,-2l1 5c-1,1 -2,2 -3,2 -1,1 -2,1 -3,1zm24 0c-1,0 -2,0 -4,0 -1,0 -2,-1 -3,-1 -1,-1 -2,-1 -3,-2l0 0 3 -3 0 0c1,1 2,1 4,2 1,0 2,0 3,0 2,0 3,0 4,0 1,-1 1,-2 1,-3 0,0 0,-1 0,-1 -1,-1 -1,-1 -2,-1 -1,0 -2,0 -3,0 0,0 0,0 0,0 -1,0 -1,0 -1,0 0,0 0,0 0,0 0,0 0,0 0,0 -2,-1 -3,-1 -4,-1 -1,0 -2,-1 -2,-2 -1,-1 -1,-2 -1,-3 0,-2 0,-3 1,-4 0,-1 1,-2 3,-3 1,0 2,-1 4,-1 1,0 3,1 4,1 1,0 2,0 3,1 1,0 2,1 2,1l0 0 -2 4 0 0c-1,-1 -2,-2 -4,-2 -1,0 -2,-1 -3,-1 -1,0 -2,1 -3,1 -1,1 -1,1 -1,2 0,1 0,2 0,2 1,0 1,0 2,0 1,0 2,1 3,1 0,0 0,0 0,0 0,0 0,0 0,0 0,0 0,0 1,0 0,0 0,0 0,0 1,0 3,0 4,0 1,1 2,1 2,2 1,1 2,2 2,4 0,2 -1,3 -2,4 0,1 -1,2 -3,3 -1,0 -3,0 -5,0zm14 -5l5 0 0 5 -5 0 0 -5zm12 -20c0,-2 0,-4 1,-5 1,-1 2,-1 4,-1l4 0 0 4 -4 0c0,0 0,0 -1,0 0,1 0,1 0,2l0 25 -4 0 0 -25zm-3 3l12 0 0 4 -12 0 0 -4zm43 9c0,-2 -1,-3 -2,-4 0,-1 -1,-1 -3,-1 -1,0 -2,0 -3,1 -1,1 -1,2 -1,3l-1 -4c1,-1 2,-3 3,-3 1,-1 2,-2 3,-2 2,0 3,1 5,2 1,0 2,1 2,3 1,1 1,3 1,5l0 13 -4 0 0 -13zm-27 -9l4 0 0 22 -4 0 0 -22zm13 9c0,-2 0,-3 -1,-4 -1,-1 -2,-1 -3,-1 -2,0 -3,0 -3,1 -1,1 -2,2 -2,3l0 -4c1,-2 2,-3 3,-3 1,-1 2,-2 3,-2 2,0 3,1 4,2 1,0 2,1 3,3 0,1 1,3 1,5l0 13 -5 0 0 -13z"/>
 </g>
</svg>
